<?xml version="1.0" encoding="UTF-8" standalone="no"?>
<!-- Created with Inkscape (http://www.inkscape.org/) -->

<svg
   xmlns:dc="http://purl.org/dc/elements/1.1/"
   xmlns:cc="http://creativecommons.org/ns#"
   xmlns:rdf="http://www.w3.org/1999/02/22-rdf-syntax-ns#"
   xmlns:svg="http://www.w3.org/2000/svg"
   xmlns="http://www.w3.org/2000/svg"
   xmlns:sodipodi="http://sodipodi.sourceforge.net/DTD/sodipodi-0.dtd"
   xmlns:inkscape="http://www.inkscape.org/namespaces/inkscape"
   width="35"
   height="35"
   id="svg3316"
   version="1.1"
   inkscape:version="0.48.5 r10040"
   sodipodi:docname="logo-aew.svg">
  <defs
     id="defs3318" />
  <sodipodi:namedview
     id="base"
     pagecolor="#ffffff"
     bordercolor="#666666"
     borderopacity="1.0"
     inkscape:pageopacity="0.0"
     inkscape:pageshadow="2"
     inkscape:zoom="21.4"
     inkscape:cx="17.5"
     inkscape:cy="17.5"
     inkscape:document-units="px"
     inkscape:current-layer="layer1"
     showgrid="false"
     inkscape:window-width="1549"
     inkscape:window-height="876"
     inkscape:window-x="51"
     inkscape:window-y="24"
     inkscape:window-maximized="1" />
  <metadata
     id="metadata3321">
    <rdf:RDF>
      <cc:Work
         rdf:about="">
        <dc:format>image/svg+xml</dc:format>
        <dc:type
           rdf:resource="http://purl.org/dc/dcmitype/StillImage" />
        <dc:title></dc:title>
      </cc:Work>
    </rdf:RDF>
  </metadata>
  <g
     inkscape:label="Camada 1"
     inkscape:groupmode="layer"
     id="layer1"
     transform="translate(0,-1017.3622)">
    <g
       transform="matrix(0.40200387,0,0,-0.40200387,-163.42221,1132.3108)"
       id="g3255">
      <g
         id="g22"
         transform="translate(468.7402,267.1084)">
        <path
           d="m 0,0 c 0.936,-0.932 0.936,-2.443 0,-3.377 l -16.885,-16.888 c -0.934,-0.932 -2.443,-0.932 -3.376,0 l -16.887,16.888 c -0.934,0.934 -0.934,2.445 0,3.377 l 16.887,16.887 c 0.933,0.933 2.442,0.933 3.376,0 L 0,0 z"
           style="fill:#2980b9;fill-opacity:1;fill-rule:nonzero;stroke:none"
           id="path24"
           inkscape:connector-curvature="0" />
      </g>
      <g
         id="g26"
         transform="translate(468.7402,221.085)">
        <path
           d="m 0,0 c 0.936,-0.934 0.936,-2.447 0,-3.38 l -16.885,-16.886 c -0.934,-0.933 -2.443,-0.933 -3.376,0 L -37.148,-3.38 c -0.934,0.933 -0.934,2.446 0,3.38 l 16.887,16.885 c 0.933,0.935 2.442,0.935 3.376,0 L 0,0 z"
           style="fill:#c00300;fill-opacity:1;fill-rule:nonzero;stroke:none"
           id="path28"
           inkscape:connector-curvature="0" />
      </g>
      <g
         id="g30"
         transform="translate(491.7578,244.0947)">
        <path
           d="m 0,0 c 0.93,-0.931 0.93,-2.442 0,-3.376 l -16.89,-16.888 c -0.931,-0.932 -2.444,-0.932 -3.378,0 l -16.886,16.888 c -0.934,0.934 -0.934,2.445 0,3.376 l 16.886,16.889 c 0.934,0.933 2.447,0.933 3.378,0 L 0,0 z"
           style="fill:#65a137;fill-opacity:1;fill-rule:nonzero;stroke:none"
           id="path32"
           inkscape:connector-curvature="0" />
      </g>
      <g
         id="g34"
         transform="translate(445.7285,244.0947)">
        <path
           d="m 0,0 c 0.934,-0.931 0.934,-2.442 0,-3.376 l -16.887,-16.888 c -0.93,-0.932 -2.445,-0.932 -3.377,0 l -16.888,16.888 c -0.93,0.934 -0.93,2.445 0,3.376 l 16.888,16.889 c 0.932,0.933 2.447,0.933 3.377,0 L 0,0 z"
           style="fill:#f39c12;fill-opacity:1;fill-rule:nonzero;stroke:none"
           id="path36"
           inkscape:connector-curvature="0" />
      </g>
      <g
         id="g38"
         transform="translate(455.3955,234.4307)">
        <path
           d="m 0,0 c -0.005,-0.005 -0.008,-0.01 -0.018,-0.014 -2.762,-2.764 -2.762,-7.25 0,-10.016 2.767,-2.767 7.255,-2.767 10.022,0 0.001,0.005 0.005,0.011 0.01,0.013 L 0,0 z"
           style="fill:#65a137;fill-opacity:1;fill-rule:nonzero;stroke:none"
           id="path40"
           inkscape:connector-curvature="0" />
      </g>
      <g
         id="g42"
         transform="translate(468.1484,227.1768)">
        <path
           d="m 0,0 c 0.003,0.002 0.008,0.007 0.016,0.013 2.762,2.766 2.762,7.252 0,10.017 -2.765,2.764 -7.249,2.764 -10.017,0 -0.006,-0.007 -0.01,-0.011 -0.013,-0.017 L 0,0 z"
           style="fill:#c00300;fill-opacity:1;fill-rule:nonzero;stroke:none"
           id="path44"
           inkscape:connector-curvature="0" />
      </g>
      <g
         id="g46"
         transform="translate(432.2197,257.6064)">
        <path
           d="m 0,0 c -0.003,-0.005 -0.012,-0.01 -0.019,-0.014 -2.759,-2.763 -2.759,-7.25 0,-10.014 2.768,-2.769 7.255,-2.769 10.019,0 0.005,0.005 0.01,0.01 0.013,0.016 L 0,0 z"
           style="fill:#2980b9;fill-opacity:1;fill-rule:nonzero;stroke:none"
           id="path48"
           inkscape:connector-curvature="0" />
      </g>
      <g
         id="g50"
         transform="translate(444.9707,250.3535)">
        <path
           d="m 0,0 c 0.005,0.003 0.01,0.008 0.013,0.013 2.768,2.764 2.768,7.25 0,10.014 -2.762,2.77 -7.248,2.77 -10.014,0 -0.005,-0.005 -0.008,-0.009 -0.011,-0.014 L 0,0 z"
           style="fill:#f39c12;fill-opacity:1;fill-rule:nonzero;stroke:none"
           id="path52"
           inkscape:connector-curvature="0" />
      </g>
      <g
         id="g54"
         transform="translate(432.1855,227.1592)">
        <path
           d="m 0,0 c -0.004,0.007 -0.01,0.01 -0.016,0.014 -2.764,2.764 -2.764,7.253 0,10.016 2.768,2.766 7.25,2.766 10.019,0 0.004,-0.005 0.007,-0.01 0.009,-0.018 L 0,0 z"
           style="fill:#c00300;fill-opacity:1;fill-rule:nonzero;stroke:none"
           id="path56"
           inkscape:connector-curvature="0" />
      </g>
      <g
         id="g58"
         transform="translate(444.9375,234.4121)">
        <path
           d="m 0,0 c 0.007,-0.006 0.01,-0.006 0.017,-0.012 2.766,-2.767 2.764,-7.251 0,-10.015 -2.766,-2.767 -7.248,-2.767 -10.017,0 -0.002,0.006 -0.007,0.009 -0.014,0.015 L 0,0 z"
           style="fill:#f39c12;fill-opacity:1;fill-rule:nonzero;stroke:none"
           id="path60"
           inkscape:connector-curvature="0" />
      </g>
      <g
         id="g62"
         transform="translate(455.5264,250.502)">
        <path
           d="m 0,0 c -0.005,0.004 -0.008,0.009 -0.015,0.011 -2.768,2.764 -2.768,7.254 0,10.015 2.766,2.768 7.253,2.768 10.015,0 0.009,-0.004 0.009,-0.009 0.014,-0.013 L 0,0 z"
           style="fill:#65a137;fill-opacity:1;fill-rule:nonzero;stroke:none"
           id="path64"
           inkscape:connector-curvature="0" />
      </g>
      <g
         id="g66"
         transform="translate(468.2793,257.752)">
        <path
           d="m 0,0 c 0.003,-0.002 0.011,-0.005 0.013,-0.012 2.766,-2.766 2.766,-7.248 0,-10.015 -2.766,-2.767 -7.248,-2.767 -10.015,0 -0.004,0.005 -0.007,0.009 -0.01,0.013 L 0,0 z"
           style="fill:#2980b9;fill-opacity:1;fill-rule:nonzero;stroke:none"
           id="path68"
           inkscape:connector-curvature="0" />
      </g>
    </g>
  </g>
</svg>
